HIERARCHY
ROOT Hips
{
	OFFSET 0.00000 0.00000 0.00000
	CHANNELS 6 Xposition Yposition Zposition Zrotation Yrotation Xrotation 
	JOINT LHipJoint
	{
		OFFSET 0 0 0
		CHANNELS 3 Zrotation Yrotation Xrotation
		JOINT LeftUpLeg
		{
			OFFSET 1.78158 -1.79992 1.25746
			CHANNELS 3 Zrotation Yrotation Xrotation
			JOINT LeftLeg
			{
				OFFSET 2.48433 -6.82566 0.00000
				CHANNELS 3 Zrotation Yrotation Xrotation
				JOINT LeftFoot
				{
					OFFSET 2.69722 -7.41057 0.00000
					CHANNELS 3 Zrotation Yrotation Xrotation
					JOINT LeftToeBase
					{
						OFFSET 0.10733 -0.29489 1.75071
						CHANNELS 3 Zrotation Yrotation Xrotation
						End Site
						{
							OFFSET 0.00000 -0.00000 0.90224
						}
					}
				}
			}
		}
	}
	JOINT RHipJoint
	{
		OFFSET 0 0 0
		CHANNELS 3 Zrotation Yrotation Xrotation
		JOINT RightUpLeg
		{
			OFFSET -1.91234 -1.79993 1.25746
			CHANNELS 3 Zrotation Yrotation Xrotation
			JOINT RightLeg
			{
				OFFSET -2.33122 -6.40498 0.00000
				CHANNELS 3 Zrotation Yrotation Xrotation
				JOINT RightFoot
				{
					OFFSET -2.75667 -7.57390 0.00000
					CHANNELS 3 Zrotation Yrotation Xrotation
					JOINT RightToeBase
					{
						OFFSET -0.15946 -0.43811 1.78925
						CHANNELS 3 Zrotation Yrotation Xrotation
						End Site
						{
							OFFSET -0.00000 -0.00000 0.93158
						}
					}
				}
			}
		}
	}
	JOINT LowerBack
	{
		OFFSET 0 0 0
		CHANNELS 3 Zrotation Yrotation Xrotation
		JOINT Spine
		{
			OFFSET -0.02267 2.03993 -0.26238
			CHANNELS 3 Zrotation Yrotation Xrotation
			JOINT Spine1
			{
				OFFSET 0.02263 2.06220 -0.00892
				CHANNELS 3 Zrotation Yrotation Xrotation
				JOINT Neck
				{
					OFFSET 0 0 0
					CHANNELS 3 Zrotation Yrotation Xrotation
					JOINT Neck1
					{
						OFFSET -0.06177 1.95978 0.28606
						CHANNELS 3 Zrotation Yrotation Xrotation
						JOINT Head
						{
							OFFSET 0.08482 1.96576 -0.43252
							CHANNELS 3 Zrotation Yrotation Xrotation
							End Site
							{
								OFFSET 0.02787 2.02739 -0.18071
							}
						}
					}
				}
				JOINT LeftShoulder
				{
					OFFSET 0 0 0
					CHANNELS 3 Zrotation Yrotation Xrotation
					JOINT LeftArm
					{
						OFFSET 3.80978 1.64906 0.29973
						CHANNELS 3 Zrotation Yrotation Xrotation
						JOINT LeftForeArm
						{
							OFFSET 4.93042 -0.00000 0.00000
							CHANNELS 3 Zrotation Yrotation Xrotation
							JOINT LeftHand
							{
								OFFSET 3.68177 -0.00000 0.00000
								CHANNELS 3 Zrotation Yrotation Xrotation
								JOINT LeftFingerBase
								{
									OFFSET 0 0 0
									CHANNELS 3 Zrotation Yrotation Xrotation
									JOINT LeftHandIndex1
									{
										OFFSET 0.72148 -0.00000 0.00000
										CHANNELS 3 Zrotation Yrotation Xrotation
										End Site
										{
											OFFSET 0.58168 -0.00000 0.00000
										}
									}
								}
								JOINT LThumb
								{
									OFFSET 0 0 0
									CHANNELS 3 Zrotation Yrotation Xrotation
									End Site
									{
										OFFSET 0.59056 -0.00000 0.59056
									}
								}
							}
						}
					}
				}
				JOINT RightShoulder
				{
					OFFSET 0 0 0
					CHANNELS 3 Zrotation Yrotation Xrotation
					JOINT RightArm
					{
						OFFSET -3.49270 1.85636 0.09297
						CHANNELS 3 Zrotation Yrotation Xrotation
						JOINT RightForeArm
						{
							OFFSET -5.07905 -0.00000 -0.00000
							CHANNELS 3 Zrotation Yrotation Xrotation
							JOINT RightHand
							{
								OFFSET -3.54394 -0.00000 0.00000
								CHANNELS 3 Zrotation Yrotation Xrotation
								JOINT RightFingerBase
								{
									OFFSET 0 0 0
									CHANNELS 3 Zrotation Yrotation Xrotation
									JOINT RightHandIndex1
									{
										OFFSET -0.68116 -0.00000 0.00000
										CHANNELS 3 Zrotation Yrotation Xrotation
										End Site
										{
											OFFSET -0.54917 -0.00000 0.00000
										}
									}
								}
								JOINT RThumb
								{
									OFFSET 0 0 0
									CHANNELS 3 Zrotation Yrotation Xrotation
									End Site
									{
										OFFSET -0.55755 -0.00000 0.55755
									}
								}
							}
						}
					}
				}
			}
		}
	}
}
MOTION
Frames: 12
Frame Time: .0083333
-10.6245 17.9345 -16.4668 0 0 0 0 0 0 -21 0 0 0 0 0 0 0 0 0 0 0 0 0 0 21 0 0 0 0 0 0 0 0 0 0 0 0 0 0 0 0 0 0 0 0 0 0 -16 0 0 21 0 0 11 0 0 0 -8 0 0 0 0 0 0 0 0 0 0 0 0 0 0 0 0 0 0 0 0 8 0 0 0 0 0 0 0 0 0 0 0 0 0 0 0 0 0
-10.6245 17.9345 -16.4668 -133.1720 88.7266 -131.2710 0.0000 0.0000 0.0000 -11.4201 -17.7873 -1.5250 1.1900 6.9224 19.4855 1.1888 2.7712 -21.7644 0.3649 -3.8804 -10.7404 0.0000 0.0000 0.0000 12.8947 -11.2541 2.7710 0.0000 0.0000 -0.0000 -0.0422 -8.1631 -12.4509 -0.1284 -2.3097 6.3625 -0.0094 -0.3174 6.0345 2.0499 -0.3040 -1.8659 2.1672 -0.1070 -5.3145 -6.4368 -4.1700 -24.2776 3.9703 -4.4446 30.6820 1.9081 -1.9171 15.0127 -0.0000 0.0000 0.0000 -93.6693 3.2631 21.6286 12.0857 -19.9330 -2.1314 -0.0000 0.0000 -11.6211 31.0700 7.6646 4.5945 -7.1250 0.0000 -0.0000 3.6815 38.8842 -0.5556 -0.0000 0.0000 0.0000 81.6655 -7.3232 22.9345 -14.3873 23.2857 -2.9795 0.0000 0.0000 25.9935 -16.6718 -10.9044 3.2425 7.1250 -0.0000 -0.0000 9.2485 -41.1739 0.8812
-10.6209 17.9304 -16.4663 -132.3580 88.7012 -130.5860 0.0000 0.0000 0.0000 -11.3737 -17.4197 -1.5621 1.1977 6.9439 19.5492 1.1718 2.5323 -21.5046 0.3942 -4.0316 -11.1656 0.0000 0.0000 0.0000 12.9005 -11.2869 2.9014 0.0000 -0.0000 0.0000 -0.0388 -8.1912 -12.4247 -0.1194 -2.2274 6.1345 0.0754 -0.2875 6.1358 2.0342 -0.2580 -1.8035 2.0986 -0.0878 -5.3089 -6.3178 -4.1371 -24.2313 3.9066 -4.4241 30.7091 1.8665 -1.9029 15.0076 0.0000 -0.0000 0.0000 -93.6441 3.2258 21.6521 12.1191 -19.9830 -2.1428 -0.0000 0.0000 -11.6660 31.0378 7.6619 4.5870 -7.1250 0.0000 -0.0000 3.6535 38.8784 -0.5519 0.0000 -0.0000 0.0000 81.7598 -7.2726 22.5800 -14.2947 23.1544 -2.9430 0.0000 0.0000 26.3677 -16.6157 -10.7762 3.1935 7.1250 -0.0000 -0.0000 9.2722 -41.0375 0.9150
-10.6167 17.9264 -16.4648 -132.6600 88.6939 -131.0090 0.0000 0.0000 0.0000 -11.3664 -17.0991 -1.5515 1.1987 6.9467 19.5574 1.1540 2.3354 -21.2583 0.4194 -4.1566 -11.5176 0.0000 0.0000 0.0000 12.8749 -11.3252 3.0240 0.0000 0.0000 -0.0000 -0.0351 -8.2189 -12.3942 -0.1155 -2.1914 6.0349 0.1390 -0.2518 6.2299 2.0008 -0.2071 -1.7455 2.0229 -0.0658 -5.3039 -6.1855 -4.1066 -24.1536 3.8353 -4.4112 30.7240 1.8180 -1.8915 14.9899 0.0000 0.0000 0.0000 -93.5942 3.2067 21.6827 12.1575 -20.0404 -2.1560 -0.0000 0.0000 -11.7536 30.9892 7.6687 4.5823 -7.1250 0.0000 -0.0000 3.6111 38.8825 -0.5451 0.0000 0.0000 0.0000 81.8733 -7.2153 22.1820 -14.2065 23.0291 -2.9084 0.0000 0.0000 26.7799 -16.4386 -10.5908 3.1040 7.1250 -0.0000 -0.0000 9.3904 -40.8317 0.9750
-10.6118 17.9224 -16.4620 -134.0080 88.7112 -132.4670 0.0000 0.0000 0.0000 -11.3981 -16.8331 -1.5286 1.2000 6.9505 19.5688 1.1412 2.1624 -21.0668 0.4348 -4.2314 -11.7287 0.0000 0.0000 0.0000 12.8158 -11.3636 3.1396 0.0000 0.0000 -0.0000 -0.0322 -8.2384 -12.3653 -0.1159 -2.1953 6.0456 0.1678 -0.2170 6.3169 1.9593 -0.1607 -1.6973 1.9590 -0.0449 -5.3046 -6.0608 -4.0705 -24.0581 3.7626 -4.3863 30.7499 1.7731 -1.8760 14.9729 -0.0000 -0.0000 0.0000 -93.5380 3.2078 21.6940 12.1933 -20.0938 -2.1682 -0.0000 0.0000 -11.8840 30.9453 7.6772 4.5794 -7.1250 0.0000 -0.0000 3.5728 38.8888 -0.5387 -0.0000 -0.0000 0.0000 81.9667 -7.1689 21.8564 -14.1362 22.9291 -2.8810 0.0000 0.0000 27.1239 -16.2057 -10.4149 3.0075 7.1250 -0.0000 -0.0000 9.5586 -40.6314 1.0405
-10.6066 17.9182 -16.4587 -135.9540 88.7517 -134.5150 0.0000 0.0000 0.0000 -11.4610 -16.6195 -1.4825 1.2002 6.9508 19.5697 1.1343 2.0265 -20.9439 0.4384 -4.2486 -11.7772 0.0000 0.0000 0.0000 12.7328 -11.3942 3.2533 0.0000 0.0000 -0.0000 -0.0296 -8.2531 -12.3363 -0.1166 -2.2016 6.0631 0.1666 -0.1892 6.4027 1.9191 -0.1260 -1.6609 1.9143 -0.0288 -5.3165 -5.9609 -4.0217 -23.9677 3.7000 -4.3347 30.8164 1.7427 -1.8500 14.9749 0.0000 0.0000 0.0000 -93.4943 3.2250 21.6529 12.2163 -20.1283 -2.1762 -0.0000 0.0000 -12.0352 30.9231 7.6793 4.5766 -7.1250 0.0000 -0.0000 3.5536 38.8893 -0.5358 0.0000 0.0000 0.0000 82.0124 -7.1485 21.6974 -14.0915 22.8654 -2.8636 0.0000 0.0000 27.3023 -16.0060 -10.3375 2.9467 7.1250 -0.0000 -0.0000 9.7168 -40.5350 1.0814
-10.6007 17.9140 -16.4551 -137.8710 88.8060 -136.5160 0.0000 0.0000 0.0000 -11.5329 -16.4558 -1.4320 1.2011 6.9535 19.5777 1.1344 1.9234 -20.8995 0.4332 -4.2237 -11.7069 0.0000 0.0000 0.0000 12.6483 -11.4094 3.3585 0.0000 0.0000 -0.0000 -0.0264 -8.2719 -12.3017 -0.1131 -2.1681 5.9704 0.1483 -0.1720 6.4758 1.8869 -0.1062 -1.6370 1.8893 -0.0192 -5.3336 -5.8902 -3.9585 -23.9068 3.6565 -4.2535 30.9479 1.7322 -1.8110 15.0130 -0.0000 -0.0000 0.0000 -93.4743 3.2478 21.5327 12.2168 -20.1290 -2.1763 -0.0000 0.0000 -12.1669 30.9277 7.6704 4.5722 -7.1250 0.0000 -0.0000 3.5576 38.8794 -0.5372 -0.0000 -0.0000 0.0000 82.0073 -7.1587 21.7338 -14.0725 22.8382 -2.8562 0.0000 0.0000 27.2757 -15.9146 -10.4202 2.9522 7.1250 -0.0000 -0.0000 9.8123 -40.6116 1.0735
-10.5942 17.9098 -16.4517 -139.1050 88.8623 -137.8120 0.0000 0.0000 0.0000 -11.5905 -16.3302 -1.3936 1.2042 6.9621 19.6031 1.1408 1.8420 -20.9200 0.4257 -4.1873 -11.6041 0.0000 0.0000 0.0000 12.5844 -11.4074 3.4489 0.0000 -0.0000 0.0000 -0.0215 -8.3049 -12.2553 -0.1028 -2.0678 5.6931 0.1310 -0.1651 6.5268 1.8642 -0.0996 -1.6224 1.8750 -0.0160 -5.3474 -5.8380 -3.8848 -23.8916 3.6307 -4.1519 31.1524 1.7373 -1.7618 15.0948 0.0000 -0.0000 0.0000 -93.4775 3.2617 21.3227 12.1882 -20.0862 -2.1665 -0.0000 0.0000 -12.2308 30.9527 7.6505 4.5650 -7.1250 0.0000 -0.0000 3.5796 38.8585 -0.5424 0.0000 -0.0000 0.0000 81.9723 -7.1894 21.9119 -14.0718 22.8372 -2.8559 0.0000 0.0000 27.0902 -15.9585 -10.6530 3.0260 7.1250 -0.0000 -0.0000 9.8204 -40.8528 1.0154
-10.5871 17.9059 -16.4483 -139.2870 88.9092 -138.0340 0.0000 0.0000 0.0000 -11.6174 -16.2222 -1.3782 1.2092 6.9759 19.6441 1.1500 1.7673 -20.9683 0.4223 -4.1709 -11.5579 0.0000 0.0000 0.0000 12.5536 -11.3929 3.5204 0.0000 0.0000 -0.0000 -0.0147 -8.3554 -12.1958 -0.0874 -1.9064 5.2469 0.1292 -0.1649 6.5523 1.8486 -0.1004 -1.6115 1.8599 -0.0167 -5.3506 -5.7853 -3.8098 -23.9239 3.6100 -4.0470 31.4178 1.7461 -1.7092 15.2158 0.0000 -0.0000 0.0000 -93.4930 3.2537 21.0383 12.1301 -19.9994 -2.1466 -0.0000 0.0000 -12.1893 30.9875 7.6249 4.5561 -7.1250 0.0000 -0.0000 3.6101 38.8316 -0.5494 0.0000 -0.0000 0.0000 81.9418 -7.2198 22.1172 -14.0781 22.8462 -2.8583 0.0000 0.0000 26.8661 -16.1051 -10.9473 3.1385 7.1250 -0.0000 -0.0000 9.7520 -41.1663 0.9320
-10.5797 17.9024 -16.4448 -138.6310 88.9389 -137.3980 0.0000 0.0000 0.0000 -11.6094 -16.1085 -1.3909 1.2145 6.9907 19.6878 1.1571 1.6866 -20.9952 0.4277 -4.1972 -11.6322 0.0000 0.0000 0.0000 12.5551 -11.3760 3.5711 0.0000 0.0000 -0.0000 -0.0067 -8.4181 -12.1298 -0.0711 -1.7208 4.7346 0.1460 -0.1663 6.5580 1.8357 -0.1018 -1.6001 1.8371 -0.0183 -5.3418 -5.7162 -3.7443 -23.9898 3.5757 -3.9556 31.7160 1.7442 -1.6618 15.3608 -0.0000 -0.0000 0.0000 -93.5059 3.2186 20.7159 12.0484 -19.8772 -2.1187 -0.0000 0.0000 -12.0276 31.0222 7.6011 4.5483 -7.1250 0.0000 -0.0000 3.6406 38.8069 -0.5563 -0.0000 -0.0000 0.0000 81.9445 -7.2266 22.2245 -14.0801 22.8491 -2.8591 0.0000 0.0000 26.7490 -16.2744 -11.1742 3.2381 7.1250 -0.0000 -0.0000 9.6502 -41.4134 0.8627
-10.5725 17.8997 -16.4407 -137.9020 88.9498 -136.6750 0.0000 0.0000 0.0000 -11.5749 -15.9731 -1.4298 1.2182 7.0009 19.7180 1.1577 1.5952 -20.9616 0.4434 -4.2726 -11.8447 0.0000 0.0000 0.0000 12.5757 -11.3678 3.6020 0.0000 0.0000 -0.0000 0.0009 -8.4801 -12.0697 -0.0586 -1.5621 4.2970 0.1726 -0.1654 6.5571 1.8229 -0.0993 -1.5870 1.8085 -0.0183 -5.3276 -5.6287 -3.6968 -24.0657 3.5138 -3.8878 32.0155 1.7226 -1.6261 15.5103 -0.0000 0.0000 0.0000 -93.5045 3.1624 20.4033 11.9540 -19.7356 -2.0867 -0.0000 0.0000 -11.7623 31.0524 7.5862 4.5448 -7.1250 0.0000 -0.0000 3.6670 38.7920 -0.5617 -0.0000 0.0000 0.0000 81.9887 -7.1960 22.1565 -14.0719 22.8374 -2.8559 0.0000 0.0000 26.8430 -16.3763 -11.2294 3.2753 7.1250 -0.0000 -0.0000 9.5723 -41.4793 0.8398
-10.5659 17.8977 -16.4355 -137.9160 88.9461 -136.6850 0.0000 0.0000 0.0000 -11.5287 -15.8150 -1.4885 1.2190 7.0033 19.7250 1.1503 1.4987 -20.8557 0.4689 -4.3920 -12.1821 0.0000 0.0000 0.0000 12.5992 -11.3760 3.6160 0.0000 -0.0000 0.0000 0.0067 -8.5291 -12.0277 -0.0516 -1.4663 4.0328 0.1949 -0.1613 6.5655 1.8113 -0.0928 -1.5752 1.7830 -0.0161 -5.3203 -5.5370 -3.6708 -24.1283 3.4234 -3.8437 32.2951 1.6828 -1.6044 15.6493 -0.0000 0.0000 0.0000 -93.4863 3.1013 20.1439 11.8597 -19.5938 -2.0550 -0.0000 0.0000 -11.4376 31.0787 7.5841 4.5483 -7.1250 0.0000 -0.0000 3.6899 38.7917 -0.5652 -0.0000 0.0000 0.0000 82.0570 -7.1318 21.9229 -14.0562 22.8149 -2.8498 0.0000 0.0000 27.1552 -16.3540 -11.0885 3.2302 7.1250 -0.0000 -0.0000 9.5631 -41.3333 0.8738
